<svg width="929" height="309" viewBox="0 0 929 309" fill="none" xmlns="http://www.w3.org/2000/svg">
<rect x="327" width="275" height="309" fill="#06283D"/>
<rect x="654" width="275" height="309" fill="#DFF6FF"/>
<rect width="275" height="309" fill="#041A27"/>
<path d="M58.4492 173L63.9766 144.562H66.7891L61.2422 173H58.4492ZM66.3984 173L71.9453 144.562H74.7383L69.1914 173H66.3984ZM77.1211 155.402H56.8086V152.688H77.1211V155.402ZM75.6562 164.992H55.3242V162.297H75.6562V164.992ZM97.8633 156.516V160.852C97.8633 163.182 97.6549 165.148 97.2383 166.75C96.8216 168.352 96.2227 169.641 95.4414 170.617C94.6602 171.594 93.7161 172.303 92.6094 172.746C91.5156 173.176 90.2786 173.391 88.8984 173.391C87.8047 173.391 86.7956 173.254 85.8711 172.98C84.9466 172.707 84.1133 172.271 83.3711 171.672C82.6419 171.06 82.0169 170.266 81.4961 169.289C80.9753 168.312 80.5781 167.128 80.3047 165.734C80.0312 164.341 79.8945 162.714 79.8945 160.852V156.516C79.8945 154.185 80.1029 152.232 80.5195 150.656C80.9492 149.081 81.5547 147.818 82.3359 146.867C83.1172 145.904 84.0547 145.214 85.1484 144.797C86.2552 144.38 87.4922 144.172 88.8594 144.172C89.9661 144.172 90.9818 144.309 91.9062 144.582C92.8438 144.842 93.6771 145.266 94.4062 145.852C95.1354 146.424 95.7539 147.193 96.2617 148.156C96.7826 149.107 97.1797 150.272 97.4531 151.652C97.7266 153.033 97.8633 154.654 97.8633 156.516ZM94.2305 161.438V155.91C94.2305 154.634 94.1523 153.514 93.9961 152.551C93.8529 151.574 93.638 150.741 93.3516 150.051C93.0651 149.361 92.7005 148.801 92.2578 148.371C91.8281 147.941 91.3268 147.629 90.7539 147.434C90.194 147.225 89.5625 147.121 88.8594 147.121C88 147.121 87.2383 147.284 86.5742 147.609C85.9102 147.922 85.3503 148.423 84.8945 149.113C84.4518 149.803 84.1133 150.708 83.8789 151.828C83.6445 152.948 83.5273 154.309 83.5273 155.91V161.438C83.5273 162.714 83.599 163.84 83.7422 164.816C83.8984 165.793 84.1263 166.639 84.4258 167.355C84.7253 168.059 85.0898 168.638 85.5195 169.094C85.9492 169.549 86.444 169.888 87.0039 170.109C87.5768 170.318 88.2083 170.422 88.8984 170.422C89.7839 170.422 90.5586 170.253 91.2227 169.914C91.8867 169.576 92.4401 169.048 92.8828 168.332C93.3385 167.603 93.6771 166.672 93.8984 165.539C94.1198 164.393 94.2305 163.026 94.2305 161.438ZM121.73 163.43V166.398H101.184V164.27L113.918 144.562H116.867L113.703 150.266L105.285 163.43H121.73ZM117.766 144.562V173H114.152V144.562H117.766ZM136.887 144.406V173H133.273V148.918L125.988 151.574V148.312L136.32 144.406H136.887ZM158.977 147.082L149.562 173H145.715L156.555 144.562H159.035L158.977 147.082ZM166.867 173L157.434 147.082L157.375 144.562H159.855L170.734 173H166.867ZM166.379 162.473V165.559H150.402V162.473H166.379ZM192.238 170.031V173H173.625V170.402L182.941 160.031C184.087 158.755 184.973 157.674 185.598 156.789C186.236 155.891 186.678 155.09 186.926 154.387C187.186 153.671 187.316 152.941 187.316 152.199C187.316 151.262 187.121 150.415 186.73 149.66C186.353 148.892 185.793 148.28 185.051 147.824C184.309 147.368 183.41 147.141 182.355 147.141C181.092 147.141 180.038 147.388 179.191 147.883C178.358 148.365 177.733 149.042 177.316 149.914C176.9 150.786 176.691 151.789 176.691 152.922H173.078C173.078 151.32 173.43 149.855 174.133 148.527C174.836 147.199 175.878 146.145 177.258 145.363C178.638 144.569 180.337 144.172 182.355 144.172C184.152 144.172 185.689 144.491 186.965 145.129C188.241 145.754 189.217 146.639 189.895 147.785C190.585 148.918 190.93 150.246 190.93 151.77C190.93 152.603 190.786 153.449 190.5 154.309C190.227 155.155 189.842 156.001 189.348 156.848C188.866 157.694 188.299 158.527 187.648 159.348C187.01 160.168 186.327 160.975 185.598 161.77L177.98 170.031H192.238ZM214.484 144.562V146.594L202.707 173H198.898L210.656 147.531H195.266V144.562H214.484Z" fill="#DFF6FF"/>
<path d="M386.449 173L391.977 144.562H394.789L389.242 173H386.449ZM394.398 173L399.945 144.562H402.738L397.191 173H394.398ZM405.121 155.402H384.809V152.688H405.121V155.402ZM403.656 164.992H383.324V162.297H403.656V164.992ZM425.863 156.516V160.852C425.863 163.182 425.655 165.148 425.238 166.75C424.822 168.352 424.223 169.641 423.441 170.617C422.66 171.594 421.716 172.303 420.609 172.746C419.516 173.176 418.279 173.391 416.898 173.391C415.805 173.391 414.796 173.254 413.871 172.98C412.947 172.707 412.113 172.271 411.371 171.672C410.642 171.06 410.017 170.266 409.496 169.289C408.975 168.312 408.578 167.128 408.305 165.734C408.031 164.341 407.895 162.714 407.895 160.852V156.516C407.895 154.185 408.103 152.232 408.52 150.656C408.949 149.081 409.555 147.818 410.336 146.867C411.117 145.904 412.055 145.214 413.148 144.797C414.255 144.38 415.492 144.172 416.859 144.172C417.966 144.172 418.982 144.309 419.906 144.582C420.844 144.842 421.677 145.266 422.406 145.852C423.135 146.424 423.754 147.193 424.262 148.156C424.783 149.107 425.18 150.272 425.453 151.652C425.727 153.033 425.863 154.654 425.863 156.516ZM422.23 161.438V155.91C422.23 154.634 422.152 153.514 421.996 152.551C421.853 151.574 421.638 150.741 421.352 150.051C421.065 149.361 420.701 148.801 420.258 148.371C419.828 147.941 419.327 147.629 418.754 147.434C418.194 147.225 417.562 147.121 416.859 147.121C416 147.121 415.238 147.284 414.574 147.609C413.91 147.922 413.35 148.423 412.895 149.113C412.452 149.803 412.113 150.708 411.879 151.828C411.645 152.948 411.527 154.309 411.527 155.91V161.438C411.527 162.714 411.599 163.84 411.742 164.816C411.898 165.793 412.126 166.639 412.426 167.355C412.725 168.059 413.09 168.638 413.52 169.094C413.949 169.549 414.444 169.888 415.004 170.109C415.577 170.318 416.208 170.422 416.898 170.422C417.784 170.422 418.559 170.253 419.223 169.914C419.887 169.576 420.44 169.048 420.883 168.332C421.339 167.603 421.677 166.672 421.898 165.539C422.12 164.393 422.23 163.026 422.23 161.438ZM444.379 144.523H444.691V147.59H444.379C442.465 147.59 440.863 147.902 439.574 148.527C438.285 149.139 437.263 149.966 436.508 151.008C435.753 152.036 435.206 153.195 434.867 154.484C434.542 155.773 434.379 157.082 434.379 158.41V162.59C434.379 163.853 434.529 164.973 434.828 165.949C435.128 166.913 435.538 167.727 436.059 168.391C436.579 169.055 437.165 169.556 437.816 169.895C438.48 170.233 439.171 170.402 439.887 170.402C440.72 170.402 441.462 170.246 442.113 169.934C442.764 169.608 443.311 169.159 443.754 168.586C444.21 168 444.555 167.31 444.789 166.516C445.023 165.721 445.141 164.849 445.141 163.898C445.141 163.052 445.036 162.238 444.828 161.457C444.62 160.663 444.301 159.96 443.871 159.348C443.441 158.723 442.901 158.234 442.25 157.883C441.612 157.518 440.85 157.336 439.965 157.336C438.962 157.336 438.025 157.583 437.152 158.078C436.293 158.56 435.583 159.198 435.023 159.992C434.477 160.773 434.164 161.626 434.086 162.551L432.172 162.531C432.354 161.073 432.693 159.829 433.188 158.801C433.695 157.759 434.32 156.913 435.062 156.262C435.818 155.598 436.658 155.116 437.582 154.816C438.52 154.504 439.509 154.348 440.551 154.348C441.97 154.348 443.194 154.615 444.223 155.148C445.251 155.682 446.098 156.398 446.762 157.297C447.426 158.182 447.914 159.185 448.227 160.305C448.552 161.411 448.715 162.551 448.715 163.723C448.715 165.064 448.526 166.32 448.148 167.492C447.771 168.664 447.204 169.693 446.449 170.578C445.707 171.464 444.789 172.154 443.695 172.648C442.602 173.143 441.332 173.391 439.887 173.391C438.35 173.391 437.009 173.078 435.863 172.453C434.717 171.815 433.767 170.969 433.012 169.914C432.257 168.859 431.69 167.688 431.312 166.398C430.935 165.109 430.746 163.801 430.746 162.473V160.773C430.746 158.768 430.948 156.802 431.352 154.875C431.755 152.948 432.452 151.203 433.441 149.641C434.444 148.078 435.831 146.835 437.602 145.91C439.372 144.986 441.632 144.523 444.379 144.523ZM471.645 170.031V173H453.031V170.402L462.348 160.031C463.493 158.755 464.379 157.674 465.004 156.789C465.642 155.891 466.085 155.09 466.332 154.387C466.592 153.671 466.723 152.941 466.723 152.199C466.723 151.262 466.527 150.415 466.137 149.66C465.759 148.892 465.199 148.28 464.457 147.824C463.715 147.368 462.816 147.141 461.762 147.141C460.499 147.141 459.444 147.388 458.598 147.883C457.764 148.365 457.139 149.042 456.723 149.914C456.306 150.786 456.098 151.789 456.098 152.922H452.484C452.484 151.32 452.836 149.855 453.539 148.527C454.242 147.199 455.284 146.145 456.664 145.363C458.044 144.569 459.743 144.172 461.762 144.172C463.559 144.172 465.095 144.491 466.371 145.129C467.647 145.754 468.624 146.639 469.301 147.785C469.991 148.918 470.336 150.246 470.336 151.77C470.336 152.603 470.193 153.449 469.906 154.309C469.633 155.155 469.249 156.001 468.754 156.848C468.272 157.694 467.706 158.527 467.055 159.348C466.417 160.168 465.733 160.975 465.004 161.77L457.387 170.031H471.645ZM493.441 165.305C493.441 167.036 493.038 168.508 492.23 169.719C491.436 170.917 490.355 171.828 488.988 172.453C487.634 173.078 486.104 173.391 484.398 173.391C482.693 173.391 481.156 173.078 479.789 172.453C478.422 171.828 477.341 170.917 476.547 169.719C475.753 168.508 475.355 167.036 475.355 165.305C475.355 164.172 475.57 163.137 476 162.199C476.443 161.249 477.061 160.422 477.855 159.719C478.663 159.016 479.613 158.475 480.707 158.098C481.814 157.707 483.031 157.512 484.359 157.512C486.104 157.512 487.66 157.85 489.027 158.527C490.395 159.191 491.469 160.109 492.25 161.281C493.044 162.453 493.441 163.794 493.441 165.305ZM489.809 165.227C489.809 164.172 489.581 163.241 489.125 162.434C488.669 161.613 488.031 160.975 487.211 160.52C486.391 160.064 485.44 159.836 484.359 159.836C483.253 159.836 482.296 160.064 481.488 160.52C480.694 160.975 480.076 161.613 479.633 162.434C479.19 163.241 478.969 164.172 478.969 165.227C478.969 166.32 479.184 167.258 479.613 168.039C480.056 168.807 480.681 169.4 481.488 169.816C482.309 170.22 483.279 170.422 484.398 170.422C485.518 170.422 486.482 170.22 487.289 169.816C488.096 169.4 488.715 168.807 489.145 168.039C489.587 167.258 489.809 166.32 489.809 165.227ZM492.777 151.965C492.777 153.345 492.413 154.589 491.684 155.695C490.954 156.802 489.958 157.674 488.695 158.312C487.432 158.951 486 159.27 484.398 159.27C482.771 159.27 481.319 158.951 480.043 158.312C478.78 157.674 477.79 156.802 477.074 155.695C476.358 154.589 476 153.345 476 151.965C476 150.311 476.358 148.905 477.074 147.746C477.803 146.587 478.799 145.702 480.062 145.09C481.326 144.478 482.764 144.172 484.379 144.172C486.007 144.172 487.452 144.478 488.715 145.09C489.978 145.702 490.967 146.587 491.684 147.746C492.413 148.905 492.777 150.311 492.777 151.965ZM489.164 152.023C489.164 151.073 488.962 150.233 488.559 149.504C488.155 148.775 487.595 148.202 486.879 147.785C486.163 147.355 485.329 147.141 484.379 147.141C483.428 147.141 482.595 147.342 481.879 147.746C481.176 148.137 480.622 148.697 480.219 149.426C479.828 150.155 479.633 151.021 479.633 152.023C479.633 153 479.828 153.853 480.219 154.582C480.622 155.311 481.182 155.878 481.898 156.281C482.615 156.685 483.448 156.887 484.398 156.887C485.349 156.887 486.176 156.685 486.879 156.281C487.595 155.878 488.155 155.311 488.559 154.582C488.962 153.853 489.164 153 489.164 152.023ZM503.285 157.004H505.863C507.126 157.004 508.168 156.796 508.988 156.379C509.822 155.949 510.44 155.37 510.844 154.641C511.26 153.898 511.469 153.065 511.469 152.141C511.469 151.047 511.286 150.129 510.922 149.387C510.557 148.645 510.01 148.085 509.281 147.707C508.552 147.329 507.628 147.141 506.508 147.141C505.492 147.141 504.594 147.342 503.812 147.746C503.044 148.137 502.439 148.697 501.996 149.426C501.566 150.155 501.352 151.014 501.352 152.004H497.738C497.738 150.559 498.103 149.243 498.832 148.059C499.561 146.874 500.583 145.93 501.898 145.227C503.227 144.523 504.763 144.172 506.508 144.172C508.227 144.172 509.73 144.478 511.02 145.09C512.309 145.689 513.311 146.587 514.027 147.785C514.743 148.97 515.102 150.448 515.102 152.219C515.102 152.935 514.932 153.703 514.594 154.523C514.268 155.331 513.754 156.086 513.051 156.789C512.361 157.492 511.462 158.072 510.355 158.527C509.249 158.97 507.921 159.191 506.371 159.191H503.285V157.004ZM503.285 159.973V157.805H506.371C508.181 157.805 509.678 158.02 510.863 158.449C512.048 158.879 512.979 159.452 513.656 160.168C514.346 160.884 514.828 161.672 515.102 162.531C515.388 163.378 515.531 164.224 515.531 165.07C515.531 166.398 515.303 167.577 514.848 168.605C514.405 169.634 513.773 170.507 512.953 171.223C512.146 171.939 511.195 172.479 510.102 172.844C509.008 173.208 507.816 173.391 506.527 173.391C505.29 173.391 504.125 173.215 503.031 172.863C501.951 172.512 500.993 172.004 500.16 171.34C499.327 170.663 498.676 169.836 498.207 168.859C497.738 167.87 497.504 166.743 497.504 165.48H501.117C501.117 166.47 501.332 167.336 501.762 168.078C502.204 168.82 502.829 169.4 503.637 169.816C504.457 170.22 505.421 170.422 506.527 170.422C507.634 170.422 508.585 170.233 509.379 169.855C510.186 169.465 510.805 168.879 511.234 168.098C511.677 167.316 511.898 166.333 511.898 165.148C511.898 163.964 511.651 162.993 511.156 162.238C510.661 161.47 509.958 160.904 509.047 160.539C508.148 160.161 507.087 159.973 505.863 159.973H503.285ZM529.145 173H523.207L523.246 169.934H529.145C531.176 169.934 532.868 169.51 534.223 168.664C535.577 167.805 536.592 166.607 537.27 165.07C537.96 163.521 538.305 161.711 538.305 159.641V157.902C538.305 156.275 538.109 154.829 537.719 153.566C537.328 152.29 536.755 151.216 536 150.344C535.245 149.458 534.32 148.788 533.227 148.332C532.146 147.876 530.902 147.648 529.496 147.648H523.09V144.562H529.496C531.358 144.562 533.057 144.875 534.594 145.5C536.13 146.112 537.452 147.004 538.559 148.176C539.678 149.335 540.538 150.741 541.137 152.395C541.736 154.035 542.035 155.884 542.035 157.941V159.641C542.035 161.698 541.736 163.553 541.137 165.207C540.538 166.848 539.672 168.247 538.539 169.406C537.419 170.565 536.065 171.457 534.477 172.082C532.901 172.694 531.124 173 529.145 173ZM525.219 144.562V173H521.449V144.562H525.219Z" fill="#DFF6FF"/>
<path d="M713.449 173L718.977 144.562H721.789L716.242 173H713.449ZM721.398 173L726.945 144.562H729.738L724.191 173H721.398ZM732.121 155.402H711.809V152.688H732.121V155.402ZM730.656 164.992H710.324V162.297H730.656V164.992ZM743.645 173H737.707L737.746 169.934H743.645C745.676 169.934 747.368 169.51 748.723 168.664C750.077 167.805 751.092 166.607 751.77 165.07C752.46 163.521 752.805 161.711 752.805 159.641V157.902C752.805 156.275 752.609 154.829 752.219 153.566C751.828 152.29 751.255 151.216 750.5 150.344C749.745 149.458 748.82 148.788 747.727 148.332C746.646 147.876 745.402 147.648 743.996 147.648H737.59V144.562H743.996C745.858 144.562 747.557 144.875 749.094 145.5C750.63 146.112 751.952 147.004 753.059 148.176C754.178 149.335 755.038 150.741 755.637 152.395C756.236 154.035 756.535 155.884 756.535 157.941V159.641C756.535 161.698 756.236 163.553 755.637 165.207C755.038 166.848 754.172 168.247 753.039 169.406C751.919 170.565 750.565 171.457 748.977 172.082C747.401 172.694 745.624 173 743.645 173ZM739.719 144.562V173H735.949V144.562H739.719ZM765.969 144.562V173H762.199V144.562H765.969ZM777.883 157.355V160.441H765.148V157.355H777.883ZM779.816 144.562V147.648H765.148V144.562H779.816ZM788.078 144.562V173H784.309V144.562H788.078ZM799.992 157.355V160.441H787.258V157.355H799.992ZM801.926 144.562V147.648H787.258V144.562H801.926ZM819.348 144.523H819.66V147.59H819.348C817.434 147.59 815.832 147.902 814.543 148.527C813.254 149.139 812.232 149.966 811.477 151.008C810.721 152.036 810.174 153.195 809.836 154.484C809.51 155.773 809.348 157.082 809.348 158.41V162.59C809.348 163.853 809.497 164.973 809.797 165.949C810.096 166.913 810.507 167.727 811.027 168.391C811.548 169.055 812.134 169.556 812.785 169.895C813.449 170.233 814.139 170.402 814.855 170.402C815.689 170.402 816.431 170.246 817.082 169.934C817.733 169.608 818.28 169.159 818.723 168.586C819.178 168 819.523 167.31 819.758 166.516C819.992 165.721 820.109 164.849 820.109 163.898C820.109 163.052 820.005 162.238 819.797 161.457C819.589 160.663 819.27 159.96 818.84 159.348C818.41 158.723 817.87 158.234 817.219 157.883C816.581 157.518 815.819 157.336 814.934 157.336C813.931 157.336 812.993 157.583 812.121 158.078C811.262 158.56 810.552 159.198 809.992 159.992C809.445 160.773 809.133 161.626 809.055 162.551L807.141 162.531C807.323 161.073 807.661 159.829 808.156 158.801C808.664 157.759 809.289 156.913 810.031 156.262C810.786 155.598 811.626 155.116 812.551 154.816C813.488 154.504 814.478 154.348 815.52 154.348C816.939 154.348 818.163 154.615 819.191 155.148C820.22 155.682 821.066 156.398 821.73 157.297C822.395 158.182 822.883 159.185 823.195 160.305C823.521 161.411 823.684 162.551 823.684 163.723C823.684 165.064 823.495 166.32 823.117 167.492C822.74 168.664 822.173 169.693 821.418 170.578C820.676 171.464 819.758 172.154 818.664 172.648C817.57 173.143 816.301 173.391 814.855 173.391C813.319 173.391 811.978 173.078 810.832 172.453C809.686 171.815 808.736 170.969 807.98 169.914C807.225 168.859 806.659 167.688 806.281 166.398C805.904 165.109 805.715 163.801 805.715 162.473V160.773C805.715 158.768 805.917 156.802 806.32 154.875C806.724 152.948 807.421 151.203 808.41 149.641C809.413 148.078 810.799 146.835 812.57 145.91C814.341 144.986 816.6 144.523 819.348 144.523ZM832.688 144.562V173H828.918V144.562H832.688ZM844.602 157.355V160.441H831.867V157.355H844.602ZM846.535 144.562V147.648H831.867V144.562H846.535ZM854.797 144.562V173H851.027V144.562H854.797ZM866.711 157.355V160.441H853.977V157.355H866.711ZM868.645 144.562V147.648H853.977V144.562H868.645Z" fill="#041A27"/>
</svg>
